<mxfile host="Electron" agent="Mozilla/5.0 (Windows NT 10.0; Win64; x64) AppleWebKit/537.36 (KHTML, like Gecko) draw.io/24.7.8 Chrome/128.0.6613.36 Electron/32.0.1 Safari/537.36" version="24.7.8">
  <diagram id="C5RBs43oDa-KdzZeNtuy" name="Page-1">
    <mxGraphModel dx="1461" dy="823" grid="1" gridSize="10" guides="1" tooltips="1" connect="1" arrows="1" fold="1" page="1" pageScale="1" pageWidth="827" pageHeight="1169" math="0" shadow="0">
      <root>
        <mxCell id="WIyWlLk6GJQsqaUBKTNV-0" />
        <mxCell id="WIyWlLk6GJQsqaUBKTNV-1" parent="WIyWlLk6GJQsqaUBKTNV-0" />
        <mxCell id="ec3Q6cWicWv9khViEyFp-0" style="edgeStyle=orthogonalEdgeStyle;rounded=0;orthogonalLoop=1;jettySize=auto;html=1;entryX=0;entryY=0.5;entryDx=0;entryDy=0;" edge="1" parent="WIyWlLk6GJQsqaUBKTNV-1" source="ec3Q6cWicWv9khViEyFp-1" target="ec3Q6cWicWv9khViEyFp-3">
          <mxGeometry relative="1" as="geometry" />
        </mxCell>
        <mxCell id="ec3Q6cWicWv9khViEyFp-1" value="" style="ellipse;fillColor=strokeColor;html=1;" vertex="1" parent="WIyWlLk6GJQsqaUBKTNV-1">
          <mxGeometry x="550" y="260" width="30" height="30" as="geometry" />
        </mxCell>
        <mxCell id="ec3Q6cWicWv9khViEyFp-2" style="edgeStyle=orthogonalEdgeStyle;rounded=0;orthogonalLoop=1;jettySize=auto;html=1;exitX=0.5;exitY=1;exitDx=0;exitDy=0;entryX=0.5;entryY=0;entryDx=0;entryDy=0;" edge="1" parent="WIyWlLk6GJQsqaUBKTNV-1" source="ec3Q6cWicWv9khViEyFp-3" target="ec3Q6cWicWv9khViEyFp-5">
          <mxGeometry relative="1" as="geometry" />
        </mxCell>
        <mxCell id="ec3Q6cWicWv9khViEyFp-3" value="Initial State" style="rounded=1;whiteSpace=wrap;html=1;" vertex="1" parent="WIyWlLk6GJQsqaUBKTNV-1">
          <mxGeometry x="670" y="265" width="75" height="20" as="geometry" />
        </mxCell>
        <mxCell id="ec3Q6cWicWv9khViEyFp-4" style="edgeStyle=orthogonalEdgeStyle;rounded=0;orthogonalLoop=1;jettySize=auto;html=1;exitX=1;exitY=0.25;exitDx=0;exitDy=0;entryX=0.5;entryY=0;entryDx=0;entryDy=0;" edge="1" parent="WIyWlLk6GJQsqaUBKTNV-1" source="ec3Q6cWicWv9khViEyFp-5" target="ec3Q6cWicWv9khViEyFp-9">
          <mxGeometry relative="1" as="geometry" />
        </mxCell>
        <mxCell id="ec3Q6cWicWv9khViEyFp-5" value="Editor State" style="rounded=1;whiteSpace=wrap;html=1;" vertex="1" parent="WIyWlLk6GJQsqaUBKTNV-1">
          <mxGeometry x="670" y="358" width="75" height="20" as="geometry" />
        </mxCell>
        <mxCell id="ec3Q6cWicWv9khViEyFp-6" value="receivedGameDetails(details)" style="text;html=1;align=center;verticalAlign=middle;resizable=0;points=[];autosize=1;strokeColor=none;fillColor=none;" vertex="1" parent="WIyWlLk6GJQsqaUBKTNV-1">
          <mxGeometry x="720" y="298" width="180" height="30" as="geometry" />
        </mxCell>
        <mxCell id="ec3Q6cWicWv9khViEyFp-7" style="edgeStyle=orthogonalEdgeStyle;rounded=0;orthogonalLoop=1;jettySize=auto;html=1;exitX=0;exitY=0.5;exitDx=0;exitDy=0;entryX=0.5;entryY=1;entryDx=0;entryDy=0;" edge="1" parent="WIyWlLk6GJQsqaUBKTNV-1" source="ec3Q6cWicWv9khViEyFp-9" target="ec3Q6cWicWv9khViEyFp-5">
          <mxGeometry relative="1" as="geometry" />
        </mxCell>
        <mxCell id="ec3Q6cWicWv9khViEyFp-8" style="edgeStyle=orthogonalEdgeStyle;rounded=0;orthogonalLoop=1;jettySize=auto;html=1;exitX=0.5;exitY=1;exitDx=0;exitDy=0;entryX=0.5;entryY=0;entryDx=0;entryDy=0;" edge="1" parent="WIyWlLk6GJQsqaUBKTNV-1" source="ec3Q6cWicWv9khViEyFp-9" target="ec3Q6cWicWv9khViEyFp-13">
          <mxGeometry relative="1" as="geometry" />
        </mxCell>
        <mxCell id="ec3Q6cWicWv9khViEyFp-9" value="&lt;span style=&quot;color: rgba(0, 0, 0, 0); font-family: monospace; font-size: 0px; text-align: start; text-wrap: nowrap;&quot;&gt;%3CmxGraphModel%3E%3Croot%3E%3CmxCell%20id%3D%220%22%2F%3E%3CmxCell%20id%3D%221%22%20parent%3D%220%22%2F%3E%3CmxCell%20id%3D%222%22%20value%3D%22%22%20style%3D%22rhombus%3BwhiteSpace%3Dwrap%3Bhtml%3D1%3B%22%20vertex%3D%221%22%20parent%3D%221%22%3E%3CmxGeometry%20x%3D%22170%22%20y%3D%22530%22%20width%3D%2280%22%20height%3D%2240%22%20as%3D%22geometry%22%2F%3E%3C%2FmxCell%3E%3C%2Froot%3E%3C%2FmxGraphModel%3E&lt;/span&gt;" style="rhombus;whiteSpace=wrap;html=1;" vertex="1" parent="WIyWlLk6GJQsqaUBKTNV-1">
          <mxGeometry x="780" y="470" width="80" height="40" as="geometry" />
        </mxCell>
        <mxCell id="ec3Q6cWicWv9khViEyFp-10" value="mapFinished" style="text;html=1;align=center;verticalAlign=middle;resizable=0;points=[];autosize=1;strokeColor=none;fillColor=none;" vertex="1" parent="WIyWlLk6GJQsqaUBKTNV-1">
          <mxGeometry x="815" y="368" width="90" height="30" as="geometry" />
        </mxCell>
        <mxCell id="ec3Q6cWicWv9khViEyFp-11" value="[otherwise]" style="text;html=1;align=center;verticalAlign=middle;resizable=0;points=[];autosize=1;strokeColor=none;fillColor=none;" vertex="1" parent="WIyWlLk6GJQsqaUBKTNV-1">
          <mxGeometry x="680" y="498" width="80" height="30" as="geometry" />
        </mxCell>
        <mxCell id="ec3Q6cWicWv9khViEyFp-12" style="edgeStyle=orthogonalEdgeStyle;rounded=0;orthogonalLoop=1;jettySize=auto;html=1;exitX=0.5;exitY=1;exitDx=0;exitDy=0;entryX=0.5;entryY=0;entryDx=0;entryDy=0;" edge="1" parent="WIyWlLk6GJQsqaUBKTNV-1" source="ec3Q6cWicWv9khViEyFp-13" target="ec3Q6cWicWv9khViEyFp-15">
          <mxGeometry relative="1" as="geometry" />
        </mxCell>
        <mxCell id="ec3Q6cWicWv9khViEyFp-13" value="Wait State" style="rounded=1;whiteSpace=wrap;html=1;" vertex="1" parent="WIyWlLk6GJQsqaUBKTNV-1">
          <mxGeometry x="782.5" y="575" width="75" height="20" as="geometry" />
        </mxCell>
        <mxCell id="ec3Q6cWicWv9khViEyFp-14" style="edgeStyle=orthogonalEdgeStyle;rounded=0;orthogonalLoop=1;jettySize=auto;html=1;exitX=1;exitY=0.5;exitDx=0;exitDy=0;entryX=0.5;entryY=0;entryDx=0;entryDy=0;strokeColor=#FF0000;" edge="1" parent="WIyWlLk6GJQsqaUBKTNV-1" source="ec3Q6cWicWv9khViEyFp-15" target="ec3Q6cWicWv9khViEyFp-17">
          <mxGeometry relative="1" as="geometry" />
        </mxCell>
        <mxCell id="ec3Q6cWicWv9khViEyFp-15" value="Battle State" style="rounded=1;whiteSpace=wrap;html=1;" vertex="1" parent="WIyWlLk6GJQsqaUBKTNV-1">
          <mxGeometry x="782.5" y="690" width="75" height="20" as="geometry" />
        </mxCell>
        <mxCell id="ec3Q6cWicWv9khViEyFp-16" style="edgeStyle=orthogonalEdgeStyle;rounded=0;orthogonalLoop=1;jettySize=auto;html=1;exitX=0.5;exitY=1;exitDx=0;exitDy=0;entryX=0.5;entryY=0;entryDx=0;entryDy=0;" edge="1" parent="WIyWlLk6GJQsqaUBKTNV-1" source="ec3Q6cWicWv9khViEyFp-17" target="ec3Q6cWicWv9khViEyFp-21">
          <mxGeometry relative="1" as="geometry" />
        </mxCell>
        <mxCell id="ec3Q6cWicWv9khViEyFp-17" value="Animation State" style="rounded=1;whiteSpace=wrap;html=1;strokeColor=#FF0000;" vertex="1" parent="WIyWlLk6GJQsqaUBKTNV-1">
          <mxGeometry x="940" y="760" width="110" height="20" as="geometry" />
        </mxCell>
        <mxCell id="ec3Q6cWicWv9khViEyFp-18" value="receivedAnimationStartMessage(msg)" style="text;html=1;align=center;verticalAlign=middle;resizable=0;points=[];autosize=1;strokeColor=#FF0000;fillColor=none;" vertex="1" parent="WIyWlLk6GJQsqaUBKTNV-1">
          <mxGeometry x="885" y="660" width="230" height="30" as="geometry" />
        </mxCell>
        <mxCell id="ec3Q6cWicWv9khViEyFp-19" style="edgeStyle=orthogonalEdgeStyle;rounded=0;orthogonalLoop=1;jettySize=auto;html=1;exitX=0;exitY=0.5;exitDx=0;exitDy=0;entryX=0.5;entryY=1;entryDx=0;entryDy=0;" edge="1" parent="WIyWlLk6GJQsqaUBKTNV-1" source="ec3Q6cWicWv9khViEyFp-21" target="ec3Q6cWicWv9khViEyFp-15">
          <mxGeometry relative="1" as="geometry" />
        </mxCell>
        <mxCell id="ec3Q6cWicWv9khViEyFp-20" style="edgeStyle=orthogonalEdgeStyle;rounded=0;orthogonalLoop=1;jettySize=auto;html=1;exitX=0.5;exitY=1;exitDx=0;exitDy=0;entryX=0.5;entryY=0;entryDx=0;entryDy=0;" edge="1" parent="WIyWlLk6GJQsqaUBKTNV-1" source="ec3Q6cWicWv9khViEyFp-21" target="ec3Q6cWicWv9khViEyFp-23">
          <mxGeometry relative="1" as="geometry" />
        </mxCell>
        <mxCell id="ec3Q6cWicWv9khViEyFp-21" value="&lt;span style=&quot;color: rgba(0, 0, 0, 0); font-family: monospace; font-size: 0px; text-align: start; text-wrap: nowrap;&quot;&gt;%3CmxGraphModel%3E%3Croot%3E%3CmxCell%20id%3D%220%22%2F%3E%3CmxCell%20id%3D%221%22%20parent%3D%220%22%2F%3E%3CmxCell%20id%3D%222%22%20value%3D%22%22%20style%3D%22rhombus%3BwhiteSpace%3Dwrap%3Bhtml%3D1%3B%22%20vertex%3D%221%22%20parent%3D%221%22%3E%3CmxGeometry%20x%3D%22170%22%20y%3D%22530%22%20width%3D%2280%22%20height%3D%2240%22%20as%3D%22geometry%22%2F%3E%3C%2FmxCell%3E%3C%2Froot%3E%3C%2FmxGraphModel%3E&lt;/span&gt;" style="rhombus;whiteSpace=wrap;html=1;" vertex="1" parent="WIyWlLk6GJQsqaUBKTNV-1">
          <mxGeometry x="955" y="878" width="80" height="40" as="geometry" />
        </mxCell>
        <mxCell id="ec3Q6cWicWv9khViEyFp-22" value="sendAnimationEndMessage(pos)&lt;div&gt;receivedEffectMessage(msg)&lt;/div&gt;" style="text;html=1;align=center;verticalAlign=middle;resizable=0;points=[];autosize=1;strokeColor=none;fillColor=none;" vertex="1" parent="WIyWlLk6GJQsqaUBKTNV-1">
          <mxGeometry x="1060" y="805" width="200" height="40" as="geometry" />
        </mxCell>
        <mxCell id="ec3Q6cWicWv9khViEyFp-23" value="game over" style="rounded=1;whiteSpace=wrap;html=1;" vertex="1" parent="WIyWlLk6GJQsqaUBKTNV-1">
          <mxGeometry x="940" y="970" width="110" height="20" as="geometry" />
        </mxCell>
        <mxCell id="ec3Q6cWicWv9khViEyFp-24" value="[game over]" style="text;html=1;align=center;verticalAlign=middle;resizable=0;points=[];autosize=1;strokeColor=none;fillColor=none;" vertex="1" parent="WIyWlLk6GJQsqaUBKTNV-1">
          <mxGeometry x="1005" y="930" width="90" height="30" as="geometry" />
        </mxCell>
        <mxCell id="ec3Q6cWicWv9khViEyFp-25" value="[otherwise]" style="text;html=1;align=center;verticalAlign=middle;resizable=0;points=[];autosize=1;strokeColor=none;fillColor=none;" vertex="1" parent="WIyWlLk6GJQsqaUBKTNV-1">
          <mxGeometry x="832" y="918" width="80" height="30" as="geometry" />
        </mxCell>
        <mxCell id="ec3Q6cWicWv9khViEyFp-26" value="[horbor&amp;nbsp; empty] / send MapMessage" style="text;html=1;align=center;verticalAlign=middle;resizable=0;points=[];autosize=1;strokeColor=none;fillColor=none;" vertex="1" parent="WIyWlLk6GJQsqaUBKTNV-1">
          <mxGeometry x="832" y="525" width="220" height="30" as="geometry" />
        </mxCell>
        <mxCell id="ec3Q6cWicWv9khViEyFp-27" value="receivedStartBattle(msg)" style="text;html=1;align=center;verticalAlign=middle;resizable=0;points=[];autosize=1;strokeColor=none;fillColor=none;" vertex="1" parent="WIyWlLk6GJQsqaUBKTNV-1">
          <mxGeometry x="827" y="610" width="160" height="30" as="geometry" />
        </mxCell>
      </root>
    </mxGraphModel>
  </diagram>
</mxfile>
